<svg width="40" height="40" viewBox="0 0 40 40" fill="none" xmlns="http://www.w3.org/2000/svg">
<path d="M31.4676 3.40001C28.3628 0.901571 23.4512 0.478055 23.241 0.46282C22.915 0.435399 22.6042 0.618211 22.4701 0.919852C22.458 0.938133 22.3513 1.18493 22.2325 1.56884C24.2861 1.91618 26.8089 2.61391 29.091 4.03071C29.4566 4.25618 29.5694 4.73759 29.3439 5.10321C29.1946 5.34391 28.9417 5.47493 28.6797 5.47493C28.5395 5.47493 28.3963 5.43532 28.2683 5.3561C24.344 2.92165 19.4446 2.79977 18.5001 2.79977C17.5555 2.79977 12.6531 2.92165 8.73178 5.3561C8.36615 5.58462 7.88475 5.47188 7.65928 5.10626C7.43076 4.73759 7.5435 4.25923 7.90912 4.03071C10.1912 2.61696 12.714 1.91618 14.7676 1.57188C14.6488 1.18493 14.5422 0.941181 14.533 0.919852C14.3959 0.618211 14.0882 0.429305 13.7591 0.46282C13.5489 0.478055 8.63733 0.90157 5.4899 3.43352C3.84764 4.95391 0.560059 13.8386 0.560059 21.5198C0.560059 21.6569 0.596621 21.7879 0.663653 21.9067C2.93053 25.892 9.11873 26.9341 10.5294 26.9798C10.5355 26.9798 10.5447 26.9798 10.5538 26.9798C10.8037 26.9798 11.0383 26.8609 11.1845 26.6598L12.6104 24.6977C8.76225 23.7044 6.79701 22.0164 6.68428 21.9159C6.36131 21.6325 6.33084 21.1389 6.61725 20.8159C6.90061 20.493 7.3942 20.4625 7.71717 20.7459C7.76287 20.7885 11.3826 23.8598 18.5001 23.8598C25.6297 23.8598 29.2494 20.7763 29.286 20.7459C29.609 20.4656 30.0995 20.493 30.3859 20.819C30.6693 21.142 30.6388 21.6325 30.3158 21.9159C30.2031 22.0164 28.2379 23.7044 24.3897 24.6977L25.8156 26.6598C25.9619 26.8609 26.1965 26.9798 26.4463 26.9798C26.4555 26.9798 26.4646 26.9798 26.4707 26.9798C27.8814 26.9341 34.0696 25.892 36.3365 21.9067C36.4035 21.7879 36.4401 21.6569 36.4401 21.5198C36.4401 13.8386 33.1525 4.95391 31.4676 3.40001ZM13.4301 18.3998C11.9219 18.3998 10.7001 17.0043 10.7001 15.2798C10.7001 13.5552 11.9219 12.1598 13.4301 12.1598C14.9383 12.1598 16.1601 13.5552 16.1601 15.2798C16.1601 17.0043 14.9383 18.3998 13.4301 18.3998ZM23.5701 18.3998C22.0619 18.3998 20.8401 17.0043 20.8401 15.2798C20.8401 13.5552 22.0619 12.1598 23.5701 12.1598C25.0783 12.1598 26.3001 13.5552 26.3001 15.2798C26.3001 17.0043 25.0783 18.3998 23.5701 18.3998Z" fill="white"/>
</svg>
