<svg width="26" height="31" viewBox="0 0 26 31" fill="none" xmlns="http://www.w3.org/2000/svg">
<g clip-path="url(#clip0_898_6041)">
<path d="M13.3309 15.503C17.0986 15.503 20.153 12.4033 20.153 8.57957C20.153 4.75589 17.0986 1.65619 13.3309 1.65619C9.56315 1.65619 6.50879 4.75589 6.50879 8.57957C6.50879 12.4033 9.56315 15.503 13.3309 15.503Z" fill="white"/>
<path d="M0.831055 30.5009C0.831055 27.1365 2.14803 23.9099 4.49223 21.5309C6.83644 19.1519 10.0158 17.8154 13.331 17.8154C16.6463 17.8154 19.8257 19.1519 22.1699 21.5309C24.5141 23.9099 25.8311 27.1365 25.8311 30.5009" fill="white"/>
<path d="M20.801 8.58154C22.9992 8.58154 24.7812 6.77308 24.7812 4.54223C24.7812 2.31139 22.9992 0.50293 20.801 0.50293C18.6028 0.50293 16.8208 2.31139 16.8208 4.54223C16.8208 6.77308 18.6028 8.58154 20.801 8.58154Z" fill="#F25353"/>
</g>
<defs>
<clipPath id="clip0_898_6041">
<rect width="25" height="30" fill="white" transform="translate(0.831055 0.50293)"/>
</clipPath>
</defs>
</svg>
