<svg width="23" height="18" viewBox="0 0 23 18" fill="none" xmlns="http://www.w3.org/2000/svg">
<path fill-rule="evenodd" clip-rule="evenodd" d="M0 1.25C0 0.559644 0.559644 0 1.25 0H21.25C21.9404 0 22.5 0.559644 22.5 1.25C22.5 1.94036 21.9404 2.5 21.25 2.5H1.25C0.559644 2.5 0 1.94036 0 1.25ZM3.75 8.75C3.75 8.05964 4.30964 7.5 5 7.5H17.5C18.1904 7.5 18.75 8.05964 18.75 8.75C18.75 9.44036 18.1904 10 17.5 10H5C4.30964 10 3.75 9.44036 3.75 8.75ZM7.5 16.25C7.5 15.5596 8.05964 15 8.75 15H13.75C14.4404 15 15 15.5596 15 16.25C15 16.9404 14.4404 17.5 13.75 17.5H8.75C8.05964 17.5 7.5 16.9404 7.5 16.25Z" fill="white"/>
</svg>
