<svg width="27" height="33" viewBox="0 0 27 33" fill="none" xmlns="http://www.w3.org/2000/svg">
<path fill-rule="evenodd" clip-rule="evenodd" d="M10.3374 2.88253C10.3374 1.29055 11.628 0 13.22 0C14.8119 0 16.1025 1.29055 16.1025 2.88253V3.87675C19.6887 5.11322 22.2651 8.51779 22.2651 12.5241V19.4849C22.2651 20.691 23.2428 21.6687 24.4488 21.6687H25.2943C25.8171 21.6687 26.241 22.0925 26.241 22.6153V26.8373C26.241 27.3863 25.7959 27.8313 25.247 27.8313H0.993976C0.445019 27.8313 0 27.3863 0 26.8373V22.6153C0 22.0925 0.423827 21.6687 0.946644 21.6687H1.79212C2.99819 21.6687 3.9759 20.691 3.9759 19.4849V12.5241C3.9759 8.44408 6.64788 4.98816 10.3374 3.81071V2.88253ZM17.8915 29.4217C17.8915 31.3979 16.2895 33 14.3132 33H12.1265C10.1502 33 8.54816 31.3979 8.54816 29.4217L17.8915 29.4217Z" fill="white"/>
</svg>
