<svg width="27" height="24" viewBox="0 0 27 24" fill="none" xmlns="http://www.w3.org/2000/svg">
<path d="M13.0969 24L11.7544 22.7885C8.19645 19.5361 5.34789 16.6985 3.20873 14.2756C1.06958 11.8527 0 9.397 0 6.9086C0 4.94407 0.6603 3.3015 1.9809 1.9809C3.3015 0.6603 4.93315 0 6.87585 0C7.98909 0 9.0914 0.267394 10.1828 0.802183C11.2742 1.33697 12.2456 2.21555 13.0969 3.43793C14.0573 2.21555 15.0505 1.33697 16.0764 0.802183C17.1023 0.267394 18.1828 0 19.3179 0C21.2606 0 22.8922 0.6603 24.2128 1.9809C25.5334 3.3015 26.1937 4.94407 26.1937 6.9086C26.1937 9.397 25.1241 11.8527 22.985 14.2756C20.8458 16.6985 17.9973 19.5361 14.4393 22.7885L13.0969 24Z" fill="#50EEF9"/>
</svg>
