<svg width="396" height="395" viewBox="0 0 396 395" fill="none" xmlns="http://www.w3.org/2000/svg">
<g filter="url(#filter0_d_1_238)">
<mask id="path-1-inside-1_1_238" fill="white">
<path fill-rule="evenodd" clip-rule="evenodd" d="M372.238 10H200.551H190.898H22.9874L11 25.4221L11 87V367.5L23.7366 384.5L200.537 383H371.857L384.837 368.075V110V88V25.5779L372.238 10Z"/>
</mask>
<path d="M372.238 10L377.681 5.59821L375.58 3H372.238V10ZM22.9874 10V3H19.5625L17.4606 5.7041L22.9874 10ZM11 25.4221L5.47323 21.1262L4.00001 23.0216L4.00001 25.4221L11 25.4221ZM11 87L4 87V87H11ZM11 367.5H4V369.831L5.39789 371.697L11 367.5ZM23.7366 384.5L18.1345 388.697L20.2567 391.53L23.796 391.5L23.7366 384.5ZM200.537 383V376H200.507L200.477 376L200.537 383ZM371.857 383V390H375.046L377.138 387.594L371.857 383ZM384.837 368.075L390.119 372.669L391.837 370.693V368.075H384.837ZM384.837 25.5779H391.837V23.1016L390.28 21.1761L384.837 25.5779ZM200.551 17H372.238V3H200.551V17ZM200.551 3H190.898V17H200.551V3ZM190.898 3H22.9874V17H190.898V3ZM17.4606 5.7041L5.47323 21.1262L16.5268 29.718L28.5142 14.2959L17.4606 5.7041ZM4.00001 25.4221L4 87L18 87L18 25.4221L4.00001 25.4221ZM18 367.5V87H4V367.5H18ZM29.3387 380.303L16.6021 363.303L5.39789 371.697L18.1345 388.697L29.3387 380.303ZM200.477 376L23.6773 377.5L23.796 391.5L200.596 390L200.477 376ZM371.857 376H200.537V390H371.857V376ZM379.555 363.482L366.575 378.406L377.138 387.594L390.119 372.669L379.555 363.482ZM377.837 110V368.075H391.837V110H377.837ZM377.837 88V110H391.837V88H377.837ZM377.837 25.5779V88H391.837V25.5779H377.837ZM366.796 14.4018L379.394 29.9797L390.28 21.1761L377.681 5.59821L366.796 14.4018Z" fill="url(#paint0_linear_1_238)" mask="url(#path-1-inside-1_1_238)"/>
</g>
<path d="M26.5 17.5L18 28.5V364L27 377L368.5 376L377.5 365V28L368.5 17.5H26.5Z" stroke="black"/>
<path d="M18 1L1 24.5V368.5L20.5 394L373.5 392.907L395 369.5V24.5L374.5 1H18Z" stroke="#4D4D4D"/>
<defs>
<filter id="filter0_d_1_238" x="5" y="4" width="385.837" height="386.5" filterUnits="userSpaceOnUse" color-interpolation-filters="sRGB">
<feFlood flood-opacity="0" result="BackgroundImageFix"/>
<feColorMatrix in="SourceAlpha" type="matrix" values="0 0 0 0 0 0 0 0 0 0 0 0 0 0 0 0 0 0 127 0" result="hardAlpha"/>
<feOffset/>
<feGaussianBlur stdDeviation="3"/>
<feComposite in2="hardAlpha" operator="out"/>
<feColorMatrix type="matrix" values="0 0 0 0 0 0 0 0 0 0 0 0 0 0 0 0 0 0 0.25 0"/>
<feBlend mode="normal" in2="BackgroundImageFix" result="effect1_dropShadow_1_238"/>
<feBlend mode="normal" in="SourceGraphic" in2="effect1_dropShadow_1_238" result="shape"/>
</filter>
<linearGradient id="paint0_linear_1_238" x1="196.163" y1="10" x2="196.163" y2="385.552" gradientUnits="userSpaceOnUse">
<stop stop-color="#FAE1B3"/>
<stop offset="1" stop-color="#B08C4D"/>
</linearGradient>
</defs>
</svg>
